# xmcd
#
# Track frame offsets:
# 150
# 12557
# 28388
# 39571
# 56597
# 67758
# 87430
# 97801
# 112884
# 125835
# 136794
#
# Disc length: 1991 seconds
#
#
# Revision: 0
# Processed by: cddbd v1.5.2PL0 Copyright (c) Steve Scherf et al.
# Submitted via: FreeRIP 2.942 
#
DISCID=8f07c50b
DTITLE=Hungry Hill - Hungry Hill
DYEAR=2005
DGENRE=Bluegrass
TTITLE0=Loving You Loving Me
TTITLE1=Mountain Girl
TTITLE2=Nickajack Cave
TTITLE3=Building a Home
TTITLE4=Someday My Ship Will Sail
TTITLE5=Doreen
TTITLE6=Shoulder To Shoulder
TTITLE7=Atlin
TTITLE8=Carolina Star
TTITLE9=Ness Creek
TTITLE10=What Would You Give
EXTD=
EXTT0=
EXTT1=
EXTT2=
EXTT3=
EXTT4=
EXTT5=
EXTT6=
EXTT7=
EXTT8=
EXTT9=
EXTT10=
PLAYORDER=
